<?xml version="1.0" encoding="utf-8"?>
<!-- Generator: Adobe Illustrator 22.1.0, SVG Export Plug-In . SVG Version: 6.00 Build 0)  -->
<svg version="1.1" id="レイヤー_1" xmlns="http://www.w3.org/2000/svg" xmlns:xlink="http://www.w3.org/1999/xlink" x="0px"
	 y="0px" viewBox="0 0 340.6 160" style="enable-background:new 0 0 340.6 160;" xml:space="preserve">
<style type="text/css">
	.st0{fill:#040000;stroke:#000000;stroke-miterlimit:10;}
	.st1{fill:#040000;stroke:#FFFFFF;stroke-width:2;stroke-miterlimit:10;}
	.st2{fill:none;stroke:#040000;stroke-miterlimit:10;}
	.st3{fill:#050101;stroke:#040000;stroke-miterlimit:10;}
</style>
<g>
	<rect x="40.7" y="58.6" class="st0" width="39" height="53.1"/>
	<rect x="32" y="109.1" class="st0" width="56.4" height="7.2"/>
	<rect x="49.5" y="70.4" class="st1" width="21.3" height="28.9"/>
	<path class="st2" d="M46.5,60.5c0,0,0.8-17.9,11.4-15.4"/>
	<ellipse class="st3" cx="60.3" cy="45.1" rx="3.4" ry="2.5"/>
	<g>
		<path d="M114.3,91.9h-4.4v24.7l-11.2,0.9V60.1l13.6-0.5c6.6,0,11.7,1.3,15.5,3.9c3.7,2.6,5.6,6.7,5.6,12.1c0,3.6-0.7,6.5-2.1,8.8
			c-1.4,2.3-3.4,4.2-6.1,5.7l5.1,12.5l5.2,12.4l-11,3L114.3,91.9z M113.7,83.6c2.7,0,4.7-0.5,6.2-1.6c1.5-1.1,2.3-3.2,2.3-6.2
			c0-4.7-2.3-7.1-7-7.1h-5.3v15H113.7z"/>
		<path d="M143.8,109.8c-2.6-5.6-3.9-12.8-3.9-21.7c0-9.4,1.4-16.7,4.2-21.8c2.8-5.1,7.3-7.7,13.6-7.7c11.9,0,17.8,9.7,17.8,29.2
			c0,8.7-1.3,16-4,21.8c-2.7,5.8-7.3,8.7-14,8.7C151,118.2,146.4,115.4,143.8,109.8z M163,103.8c0.9-3.5,1.3-8.9,1.3-16.1
			c0-5.8-0.4-10.6-1.3-14.4c-0.8-3.8-2.6-5.7-5.4-5.7c-2.8,0-4.5,1.9-5.4,5.7c-0.8,3.8-1.2,8.6-1.2,14.3c0,7.3,0.4,12.7,1.3,16.2
			c0.8,3.5,2.6,5.3,5.3,5.3C160.3,109.2,162.1,107.4,163,103.8z"/>
		<path d="M210.9,117.6l-16.8-35.9v35l-10,0.5v-57l11.7-0.5l14.9,34.2V60.6l9.5-0.9v57L210.9,117.6z"/>
		<path d="M230.9,59.7h7.2c5.8,0,10.4,0.2,13.8,0.7c3.4,0.5,6.4,2,9.1,4.5c2.6,2.5,3.9,6.5,3.9,12c0,5-1.1,8.8-3.3,11.4
			c-2.2,2.6-5,4.3-8.2,5.1c-3.2,0.8-7,1.2-11.2,1.2v22.1l-11.3,0.9V59.7z M244.1,85.4c3,0,5.3-0.6,7-1.8c1.7-1.2,2.6-3.5,2.6-6.7
			c0-3.2-0.8-5.4-2.4-6.5c-1.6-1.1-4.1-1.7-7.5-1.7h-1.6v16.8H244.1z"/>
		<path d="M267.2,117.1l12.1-56.8l16-0.7l12.4,57l-12.3,0.5l-2.1-12.3h-13.7l-2.5,12.3H267.2z M281.8,95.6h9.6l-5.3-27.5L281.8,95.6
			z"/>
	</g>
</g>
</svg>
